<svg xmlns="http://www.w3.org/2000/svg" xmlns:svg="http://www.w3.org/2000/svg" id="svg11300" width="24" height="24" version="1.0" viewBox="0 0 24 24"><metadata id="metadata4"/><g id="layer1" transform="translate(0,8)"><g id="g4450"><path id="path7106" d="m 14.149533,-6.8096074 c 0,8.2230556 0.0012,4.1920366 0.05016,8.9431893 v 0.7033969 h 0.75364 3.667712 c 2.702475,0.1104534 2.580639,-6.6322049 -0.05016,-6.4310575 -0.01881,0.00142 -0.03135,-0.00161 -0.05016,0 H 15.75738 v -3.2155287 h -1.607765 z m 1.507279,4.6725652 h 2.914073 0.05016 0.05016 c 0.591352,-0.061417 0.698719,3.5456028 0,3.5169846 h -0.05016 -2.964315 c -0.0096,-0.76458846 0.0064,-3.2806915 0,-3.5169846 z" style="display:inline;fill:#bebebe;fill-opacity:1;stroke:#000;stroke-width:.30000001;stroke-miterlimit:4;stroke-dasharray:none;stroke-opacity:1"/><path id="path7104" d="m 5.7425472,-5.2018431 v 1.4067938 h 2.8135875 c 0.2039449,0.020901 0.3170511,0.099038 0.4019411,0.2009706 0.078941,0.094858 0.1897162,0.3001697 0.2009705,0.6029116 8.039e-4,0.022991 0,0.025564 0,0.050162 v 1.105338 H 6.1947309 6.1445686 C 3.5551838,-2.0236466 3.4320291,2.9418855 6.0944064,2.8368984 H 9.8123617 10.515759 V 2.1335015 l 0.05016,-5.0745063 c 0,-0.5956124 -0.164185,-1.1511592 -0.502427,-1.5575218 C 9.7252507,-4.904889 9.2127597,-5.1503142 8.706941,-5.2019235 H 8.6567807 5.7427079 Z M 6.044003,-0.42879258 H 6.094165 6.144327 9.1086424 L 9.0584806,1.430185 H 6.0941652 6.044003 c -0.7524176,0.029744 -0.6454209,-1.92377045 0,-1.85897758 z" style="display:inline;fill:#bebebe;fill-opacity:1;stroke:#000;stroke-width:.30000001;stroke-miterlimit:4;stroke-dasharray:none;stroke-opacity:1"/><path id="path8347-7" d="M 10.689672,9.194147 H 6.4998946 v 2.683424 h 4.1897774 v 2.683408 h 1.396587 l 4.189764,-4.025112 -4.189764,-4.0251279 h -1.396587 z" style="display:inline;fill:#fff;fill-opacity:1;fill-rule:evenodd;stroke:#000;stroke-width:1.00291049;stroke-linecap:butt;stroke-linejoin:miter;stroke-miterlimit:4;stroke-dasharray:none;stroke-opacity:1"/><rect id="rect4013" width="24" height="24" x="0" y="-8" rx=".415" ry="2.122" style="color:#000;clip-rule:nonzero;display:inline;overflow:visible;visibility:visible;opacity:0;isolation:auto;mix-blend-mode:normal;color-interpolation:sRGB;color-interpolation-filters:linearRGB;solid-color:#000;solid-opacity:1;fill:#fff;fill-opacity:1;fill-rule:nonzero;stroke:none;stroke-width:.75;stroke-linecap:round;stroke-linejoin:round;stroke-miterlimit:4;stroke-dasharray:none;stroke-dashoffset:0;stroke-opacity:1;color-rendering:auto;image-rendering:auto;shape-rendering:auto;text-rendering:auto;enable-background:accumulate"/></g></g></svg>