<svg xmlns="http://www.w3.org/2000/svg" xmlns:osb="http://www.openswatchbook.org/uri/2009/osb" xmlns:svg="http://www.w3.org/2000/svg" id="svg30571" width="22" height="22" version="1.1" viewBox="0 0 22 22"><defs id="defs30573"><linearGradient id="linearGradient19282" gradientTransform="matrix(1.2178615,0,0,1.043881,356.69172,1794.4958)" osb:paint="solid"><stop style="stop-color:#666;stop-opacity:1" id="stop19284" offset="0"/></linearGradient></defs><metadata id="metadata30576"/><g id="layer1" transform="translate(0,-1030.3622)"><g id="g4258"><rect id="rect4249" width="22" height="22" x="0" y="1030.362" style="opacity:0;fill:#000;fill-opacity:1;stroke-width:1.03708994;stroke-miterlimit:4;stroke-dasharray:none"/><g id="g4247"><rect style="color:#555753;display:inline;overflow:visible;visibility:visible;fill:#000;fill-opacity:1;stroke:none;stroke-width:.82172889;stroke-miterlimit:4;stroke-dasharray:none;stroke-opacity:1;marker:none" id="rect5996-2-1-0-7-8-0-9" width="20" height="2" x="-22" y="1049.362" transform="scale(-1,1)"/><rect style="color:#555753;display:inline;overflow:visible;visibility:visible;fill:#000;fill-opacity:1;stroke:none;stroke-width:.66271162;stroke-miterlimit:4;stroke-dasharray:none;stroke-opacity:1;marker:none" id="rect5996-2-1-0-7-5-7-64" width="13" height="2.001" x="-22" y="1043.361" transform="scale(-1,1)"/><rect style="color:#555753;display:inline;overflow:visible;visibility:visible;fill:#000;fill-opacity:1;stroke:none;stroke-width:.66271162;stroke-miterlimit:4;stroke-dasharray:none;stroke-opacity:1;marker:none" id="rect5996-2-1-0-4-1-0" width="13" height="2.001" x="-22" y="1037.361" transform="scale(-1,1)"/><rect style="color:#555753;display:inline;overflow:visible;visibility:visible;fill:#000;fill-opacity:1;stroke:none;stroke-width:.82172889;stroke-miterlimit:4;stroke-dasharray:none;stroke-opacity:1;marker:none" id="rect5996-2-1-0-4-1-0-9" width="20" height="2" x="-22" y="1031.362" transform="scale(-1,1)"/><path id="path17259-0-7-2-6" d="m 0.32465065,1036.6869 v 1.1689 c 0,0.3 0.15483486,0.6175 0.37259229,0.84 l 3.20464106,2.6663 -3.20464106,2.6668 c -0.21775743,0.2224 -0.37259229,0.5398 -0.37259229,0.8398 v 1.1689 c 0.39744067,0 0.79501505,-1e-4 1.19245555,-1e-4 0.3689854,0 0.6586161,-0.1048 0.8942751,-0.3286 1.68929,-1.2541 3.3785797,-3.0925 5.067736,-4.3468 l -5.067736,-4.3467 c -0.235659,-0.2231 -0.5252897,-0.3285 -0.8942751,-0.3285 -0.3974405,0 -0.79501488,0 -1.19245555,0 z" style="color:#555753;font-style:normal;font-variant:normal;font-weight:400;font-stretch:normal;font-size:medium;line-height:normal;font-family:'Bitstream Vera Sans';-inkscape-font-specification:'Bitstream Vera Sans';text-indent:0;text-align:start;text-decoration:none;text-decoration-line:none;letter-spacing:normal;word-spacing:normal;text-transform:none;writing-mode:lr-tb;direction:ltr;text-anchor:start;display:inline;overflow:visible;visibility:visible;fill:#ff9753;fill-opacity:1;stroke:#ff5000;stroke-width:.64930129;stroke-miterlimit:4;stroke-dasharray:none;stroke-opacity:1;marker:none;enable-background:accumulate"/></g></g></g></svg>