<svg xmlns="http://www.w3.org/2000/svg" xmlns:osb="http://www.openswatchbook.org/uri/2009/osb" xmlns:svg="http://www.w3.org/2000/svg" xmlns:xlink="http://www.w3.org/1999/xlink" id="svg7384" width="12" height="12" version="1.1" viewBox="0 0 12 12"><metadata id="metadata90"/><defs id="defs7386"><linearGradient id="linearGradient885" osb:paint="solid"><stop id="stop883" offset="0" style="stop-color:#bebebe;stop-opacity:1"/></linearGradient><linearGradient id="linearGradient8074" osb:paint="solid"><stop style="stop-color:#be00be;stop-opacity:1" id="stop8072" offset="0"/></linearGradient><linearGradient id="linearGradient7561" osb:paint="solid"><stop style="stop-color:#a5a5a5;stop-opacity:1" id="stop7558" offset="0"/></linearGradient><linearGradient id="linearGradient7548" osb:paint="solid"><stop style="stop-color:#ebebeb;stop-opacity:1" id="stop7546" offset="0"/></linearGradient><linearGradient id="linearGradient7542" osb:paint="solid"><stop style="stop-color:#c9c9c9;stop-opacity:1" id="stop7538" offset="0"/></linearGradient><linearGradient id="linearGradient19282" gradientTransform="matrix(0,-735328.32,170712.69,0,2464326300,577972450)" osb:paint="solid"><stop style="stop-color:#b4b4b4;stop-opacity:1" id="stop19284" offset="0"/></linearGradient><linearGradient id="linearGradient19282-4" gradientTransform="matrix(0.34682586,0,0,0.30620888,-154.35207,-275.32369)" osb:paint="solid"><stop style="stop-color:#bebebe;stop-opacity:1" id="stop19284-0" offset="0"/></linearGradient><linearGradient id="linearGradient7788" x1="-60" x2="-44" y1="170" y2="170" gradientTransform="translate(993.77801,189.79565)" gradientUnits="userSpaceOnUse" xlink:href="#linearGradient19282-4"/><linearGradient id="linearGradient7794" x1="4" x2="8" y1="1046.362" y2="1046.362" gradientTransform="translate(745.33351,142.34674)" gradientUnits="userSpaceOnUse" xlink:href="#linearGradient19282-4"/><linearGradient id="linearGradient887" x1="2.25" x2="11.996" y1="7.125" y2="7.125" gradientUnits="userSpaceOnUse" xlink:href="#linearGradient19282"/></defs><g id="gimp-zoom-follow-window"><path id="path852" d="M 5.9726562 2.25 A 3.75 3.75 0 0 0 2.25 6 A 3.75 3.75 0 0 0 6 9.75 A 3.75 3.75 0 0 0 7.7402344 9.3203125 L 10.091797 11.671875 C 10.528535 12.108613 11.23123 12.108613 11.667969 11.671875 C 12.104707 11.235137 12.104707 10.532441 11.667969 10.095703 L 9.3183594 7.7460938 A 3.75 3.75 0 0 0 9.75 6 A 3.75 3.75 0 0 0 6 2.25 A 3.75 3.75 0 0 0 5.9726562 2.25 z M 5.9492188 4 A 1.9999826 1.9999826 0 0 1 5.9511719 4 A 1.9999826 1.9999826 0 0 1 6 4 A 1.9999826 1.9999826 0 0 1 8 6 A 1.9999826 1.9999826 0 0 1 6 8 A 1.9999826 1.9999826 0 0 1 4 6 A 1.9999826 1.9999826 0 0 1 5.9492188 4 z" style="opacity:1;fill:url(#linearGradient887);fill-opacity:1;fill-rule:evenodd;stroke-width:3.94896;stop-color:#000"/></g></svg>